<?xml version="1.0" encoding="utf-8"?>
<!-- Generator: Adobe Illustrator 24.2.1, SVG Export Plug-In . SVG Version: 6.00 Build 0)  -->
<!DOCTYPE svg PUBLIC "-//W3C//DTD SVG 1.1//EN" "http://www.w3.org/Graphics/SVG/1.1/DTD/svg11.dtd" [
	<!ENTITY ns_extend "http://ns.adobe.com/Extensibility/1.0/">
	<!ENTITY ns_ai "http://ns.adobe.com/AdobeIllustrator/10.0/">
	<!ENTITY ns_graphs "http://ns.adobe.com/Graphs/1.0/">
	<!ENTITY ns_vars "http://ns.adobe.com/Variables/1.0/">
	<!ENTITY ns_imrep "http://ns.adobe.com/ImageReplacement/1.0/">
	<!ENTITY ns_sfw "http://ns.adobe.com/SaveForWeb/1.0/">
	<!ENTITY ns_custom "http://ns.adobe.com/GenericCustomNamespace/1.0/">
	<!ENTITY ns_adobe_xpath "http://ns.adobe.com/XPath/1.0/">
]>
<svg version="1.1" id="Layer_1" xmlns:x="&ns_extend;" xmlns:i="&ns_ai;" xmlns:graph="&ns_graphs;"
	 xmlns="http://www.w3.org/2000/svg" xmlns:xlink="http://www.w3.org/1999/xlink" x="0px" y="0px" viewBox="0 0 606.3 606.3"
	 style="enable-background:new 0 0 606.3 606.3;" xml:space="preserve">
<style type="text/css">
	.st0{fill:#0A4976;}
</style>
<metadata>
	<sfw  xmlns="&ns_sfw;">
		<slices></slices>
		<sliceSourceBounds  bottomLeftOrigin="true" height="606.3" width="606.3" x="439.4" y="-1584.3"></sliceSourceBounds>
	</sfw>
</metadata>
<g>
	<polygon class="st0" points="339.2,472 303.2,365.9 267.1,472 226,359.7 200.1,359.7 266.9,541.9 302.7,432.7 339.3,542.2 
		406.1,359.7 380.2,359.7 	"/>
	<path class="st0" d="M266.6,243.6v-62.9h26.6l40.9,62.9H364l-37.9-58.8l-4.9-7.7l8.4-3.4c4.7-1.9,8.4-3.8,11.1-5.8
		c2.8-2,5.8-5.2,8.9-9.5c3.7-5.4,6.4-10.6,8.2-15.6c1.9-5.2,2.8-10.9,2.8-17.1v-5.1c0-8.2-1.3-15.2-3.9-21.1
		c-2.4-5.6-6.7-11.5-12.8-17.7c-6-5.6-12.7-9.9-20.3-12.9c-8-3.1-16.4-4.7-25.3-4.7h-56l0.1,179.5H266.6z M266.4,149.1V95.4v-7.6
		h7.5h22c5.9,0,11.3,0.8,16.4,2.5c5.4,1.8,9.7,4.3,13,7.5v0.1c3.6,3.9,6.2,7.5,7.6,10.9c1.5,3.9,2.3,8.3,2.3,13
		c0,5.2-0.8,9.7-2.3,13.4c-1.5,4.1-4.1,8-7.7,11.6c-3.5,3.5-7,6.1-10.3,7.6c-3.7,1.6-8,2.4-12.9,2.4l-0.1-0.1H289h-6l-9-0.1h-7.5
		V149.1z"/>
	<path class="st0" d="M303.1,0C136,0,0,136,0,303.1s136,303.1,303.1,303.1s303.1-136,303.1-303.1S470.3,0,303.1,0z M303.1,591.7
		C144,591.7,14.5,462.3,14.5,303.1S144,14.5,303.1,14.5S591.7,144,591.7,303.1S462.3,591.7,303.1,591.7z"/>
	<rect x="114.7" y="295.9" class="st0" width="376.8" height="14.5"/>
</g>
</svg>
